<svg version="1.1" xmlns="http://www.w3.org/2000/svg" xmlns:xlink="http://www.w3.org/1999/xlink" width="512.000000pt" height="512.000000pt" viewBox="0,0,256,256"><g fill="#458f6c" fill-rule="nonzero" stroke="none" stroke-width="1" stroke-linecap="butt" stroke-linejoin="miter" stroke-miterlimit="10" stroke-dasharray="" stroke-dashoffset="0" font-family="none" font-weight="none" font-size="none" text-anchor="none" style="mix-blend-mode: normal"><g transform="translate(0,-0.00271) scale(0.5,0.5)"><g transform="translate(0,512) scale(0.1,-0.1)"><path d="M2420,4416c-161,-35 -268,-94 -385,-211c-96,-95 -156,-192 -189,-304c-121,-413 118,-837 534,-942c120,-31 301,-24 414,15c386,132 595,536 480,928c-33,111 -93,208 -189,304c-76,77 -105,98 -185,137c-52,26 -122,54 -155,63c-84,22 -245,27 -325,10zM2695,4258c259,-56 455,-303 455,-574c0,-101 -15,-165 -62,-263c-119,-248 -403,-380 -673,-311c-208,53 -382,227 -430,431c-34,144 -8,320 64,439c136,226 388,334 646,278z"></path><path d="M2030,2785c-187,-39 -343,-129 -453,-262c-80,-97 -132,-216 -163,-379c-3,-20 -7,-20 -66,-12c-35,5 -136,10 -224,11c-146,2 -164,0 -183,-17c-13,-12 -21,-31 -21,-50c0,-37 323,-823 348,-847c12,-12 55,-19 157,-27c160,-13 240,-29 375,-73c208,-68 498,-232 658,-373c97,-86 105,-85 226,16c167,141 432,291 632,357c127,41 227,61 386,74c97,9 142,16 152,27c24,25 346,811 346,846c0,19 -8,38 -21,50c-19,17 -37,19 -183,17c-88,-1 -190,-6 -224,-11c-45,-6 -65,-6 -67,2c-1,6 -8,40 -14,75c-50,266 -264,486 -551,567c-58,16 -115,18 -555,20c-382,2 -504,0 -555,-11zM3029,2639c210,-34 374,-148 460,-319c38,-77 66,-173 59,-207c-2,-12 -36,-25 -128,-48c-296,-77 -601,-227 -797,-391c-51,-44 -76,-53 -88,-34c-13,21 -171,135 -266,191c-175,104 -356,178 -569,233c-121,32 -125,34 -128,61c-2,16 8,66 23,112c68,209 242,356 470,398c89,17 868,20 964,4zM1357,1975c414,-54 805,-216 1070,-442l53,-45v-274v-273l-122,82c-278,187 -575,299 -876,330l-113,12l-113,270c-62,149 -120,289 -129,313l-17,42h65c35,0 117,-7 182,-15zM3993,1948c-9,-24 -67,-164 -129,-313l-113,-270l-113,-12c-301,-31 -592,-141 -873,-329l-125,-83v274v275l83,66c276,220 631,364 1027,418c58,8 140,14 182,15l78,1z"></path></g></g></g></svg>