<svg version="1.1" xmlns="http://www.w3.org/2000/svg" xmlns:xlink="http://www.w3.org/1999/xlink" width="512.000000pt" height="512.000000pt" viewBox="0,0,256,256"><g fill="#36a2eb" fill-rule="nonzero" stroke="none" stroke-width="1" stroke-linecap="butt" stroke-linejoin="miter" stroke-miterlimit="10" stroke-dasharray="" stroke-dashoffset="0" font-family="none" font-weight="none" font-size="none" text-anchor="none" style="mix-blend-mode: normal"><g transform="translate(-0.25976,0) scale(0.5,0.5)"><g transform="translate(0,512) scale(0.1,-0.1)"><path d="M1825,5108c-46,-25 -55,-48 -55,-150c0,-119 21,-184 86,-264c95,-116 89,-77 89,-599c0,-504 -3,-534 -64,-710c-16,-44 -270,-669 -566,-1390c-296,-720 -546,-1339 -557,-1375c-73,-258 97,-542 362,-604c57,-14 242,-16 1441,-16c895,0 1395,4 1430,10c178,34 337,185 384,365c19,74 19,164 1,236c-8,31 -262,659 -565,1396c-302,737 -561,1378 -576,1424c-46,145 -55,255 -55,685c0,449 1,455 80,558c83,108 94,137 98,253c5,127 0,148 -41,173c-31,19 -54,20 -752,20c-504,-1 -726,-4 -740,-12zM3160,4896c0,-12 -14,-41 -30,-62c-67,-86 -110,-159 -127,-212c-16,-52 -18,-102 -18,-532c1,-618 -7,-577 220,-1132l122,-298h-760c-718,0 -759,1 -754,18c2,9 57,144 121,300c214,518 207,487 213,1082c5,565 2,584 -118,736c-27,34 -52,76 -55,93l-6,31h596h596zM3798,1515l386,-940l1,-80c0,-68 -5,-88 -27,-131c-15,-29 -49,-70 -75,-92c-90,-78 4,-73 -1543,-70l-1375,3l-57,28c-98,48 -168,157 -168,262v45h100c95,0 101,1 131,28c37,33 43,84 15,126c-21,34 -53,46 -117,46c-27,0 -49,2 -49,4c0,3 24,65 54,138l54,133l104,5c57,3 111,9 120,14c25,12 50,73 43,105c-10,49 -48,74 -115,79c-33,2 -60,8 -60,12c0,4 24,65 53,136l54,129l104,5c119,7 134,12 154,51c22,42 18,75 -13,110c-25,28 -37,33 -94,38l-65,6l55,138l56,137h99c54,0 108,5 120,11c78,40 75,150 -5,178c-17,6 -53,11 -81,11c-39,0 -48,3 -43,15c3,8 28,71 57,140l51,125l845,-2l845,-3z"></path><path d="M3243,1953c-31,-6 -73,-59 -73,-92c0,-23 332,-849 367,-916c52,-96 188,-64 185,43c0,23 -299,770 -360,900c-22,49 -69,74 -119,65z"></path><path d="M3725,729c-87,-50 -66,-173 31,-186c36,-5 46,-1 75,25c44,39 47,98 8,137c-29,29 -85,41 -114,24z"></path></g></g></g></svg>