<svg version="1.1" xmlns="http://www.w3.org/2000/svg" xmlns:xlink="http://www.w3.org/1999/xlink" width="512.000000pt" height="512.000000pt" viewBox="0,0,256,256"><g fill="#374785" fill-rule="nonzero" stroke="none" stroke-width="1" stroke-linecap="butt" stroke-linejoin="miter" stroke-miterlimit="10" stroke-dasharray="" stroke-dashoffset="0" font-family="none" font-weight="none" font-size="none" text-anchor="none" style="mix-blend-mode: normal"><g transform="translate(2.25,0.06594) scale(0.5,0.5)"><g transform="translate(0,512) scale(0.1,-0.1)"><path d="M2443,4479c-34,-4 -88,-18 -120,-31c-60,-25 -2003,-1151 -2059,-1193c-51,-39 -84,-117 -84,-194c0,-80 22,-131 76,-182c22,-20 173,-114 337,-209l297,-172v-402c0,-220 5,-432 10,-471c7,-47 24,-98 51,-154c70,-141 96,-161 585,-443c236,-135 461,-262 499,-281c85,-42 210,-83 302,-97c75,-12 267,-15 329,-5c185,30 287,72 564,231c124,72 330,191 459,265c276,159 326,201 390,330c27,56 44,107 51,154c5,39 10,250 10,471v401l130,76l130,75v-579v-580l-29,-25c-17,-14 -42,-50 -57,-80c-23,-48 -26,-63 -22,-124c19,-263 357,-332 480,-97c35,66 32,166 -7,236c-16,29 -40,60 -52,68l-23,15v669v668l28,15c40,21 99,86 117,128c8,21 15,66 15,102c0,83 -36,156 -100,202c-25,17 -488,289 -1030,603c-737,428 -1001,577 -1050,591c-81,23 -148,29 -227,19zM2592,4182c47,-17 1938,-1112 1938,-1122c-1,-4 -1163,-681 -1745,-1016c-208,-120 -242,-131 -324,-110c-29,7 -419,227 -1004,567c-526,305 -956,556 -956,559c-1,3 54,37 122,76c67,39 499,289 959,557c460,267 852,490 870,496c49,14 88,12 140,-7zM1755,1995c297,-172 565,-322 595,-332c81,-27 265,-25 341,4c31,11 169,86 305,165c654,381 823,478 838,484c15,6 16,-23 16,-317c0,-192 -4,-339 -10,-361c-25,-88 -48,-105 -490,-361c-467,-269 -522,-298 -635,-328c-112,-30 -288,-30 -400,0c-112,30 -166,58 -635,329c-442,255 -465,272 -490,360c-6,22 -10,169 -10,361c0,304 1,323 18,317c9,-4 260,-148 557,-321z"></path></g></g></g></svg>