<svg version="1.1" xmlns="http://www.w3.org/2000/svg" xmlns:xlink="http://www.w3.org/1999/xlink" width="512.000000pt" height="512.000000pt" viewBox="0,0,256,256"><g fill="#f76c6c" fill-rule="nonzero" stroke="none" stroke-width="1" stroke-linecap="butt" stroke-linejoin="miter" stroke-miterlimit="10" stroke-dasharray="" stroke-dashoffset="0" font-family="none" font-weight="none" font-size="none" text-anchor="none" style="mix-blend-mode: normal"><g transform="translate(0,-0.11663) scale(0.5,0.5)"><g transform="translate(0,512) scale(0.1,-0.1)"><path d="M1903,4766c-58,-19 -104,-49 -151,-100c-72,-78 -81,-106 -117,-356c-14,-96 -27,-185 -30,-197l-5,-23h-603c-526,0 -610,-2 -658,-16c-176,-52 -301,-189 -329,-360c-13,-80 -13,-2919 0,-2999c28,-171 162,-315 337,-360c87,-23 4339,-23 4426,0c175,45 309,189 337,360c13,80 13,2919 0,2999c-28,171 -153,308 -329,360c-48,14 -132,16 -658,16h-603l-5,23c-3,12 -16,101 -30,197c-29,203 -38,241 -70,296c-31,53 -105,121 -163,147c-46,22 -55,22 -677,24c-499,2 -639,-1 -672,-11zM3149,4467c8,-11 61,-326 61,-368c0,-5 -268,-9 -650,-9c-382,0 -650,4 -650,9c0,42 53,357 61,368c17,19 1161,19 1178,0zM4724,3776c18,-8 46,-31 62,-52l29,-37l3,-421c2,-260 -1,-447 -8,-491c-21,-140 -113,-275 -234,-344c-111,-62 -98,-61 -788,-61h-628v133c0,148 -10,179 -72,217c-32,19 -52,20 -528,20c-476,0 -496,-1 -528,-20c-62,-38 -72,-69 -72,-217v-133h-628c-690,0 -677,-1 -788,61c-121,69 -213,204 -234,344c-7,44 -10,231 -8,491l3,421l29,37c16,21 43,44 60,52c47,20 4281,21 4330,0zM2860,2223v-218l-150,-78l-150,-78l-150,78l-150,78v218v217h300h300zM453,2140c34,-16 98,-40 142,-52c78,-21 96,-22 723,-26l642,-3v-92c0,-74 4,-98 20,-124c24,-40 44,-52 316,-196c184,-98 228,-117 264,-117c36,0 80,19 264,117c272,144 292,156 316,196c16,26 20,50 20,124v92l643,3c626,4 644,5 722,26c92,26 185,67 250,112l45,31l-2,-745c-3,-734 -3,-745 -24,-772c-11,-15 -33,-37 -48,-48l-27,-21h-2159h-2159l-27,21c-15,11 -37,33 -48,48c-21,27 -21,38 -24,772l-2,745l45,-31c25,-17 73,-44 108,-60z"></path></g></g></g></svg>